<svg xmlns="http://www.w3.org/2000/svg" viewBox="0 0 327.04 407.56"><defs><style>.cls-1{fill:#fff;}</style></defs><g id="レイヤー_2" data-name="レイヤー 2"><g id="レイヤー_1-2" data-name="レイヤー 1"><path d="M327,134.14c-5.91,10.45-10.72,21.77-18.06,31.09-6.22,7.88-15.21,13.64-23.32,19.91-2.07,1.6-5.42,1.54-8.07,2.21-2.4-5,.38-7.15,3.14-9,9.53-6.48,12.62-15.9,13.55-26.88,2.94-34.43-15.54-51.28-45.37-61.86-10.52-3.74-21.82-5.25-33.2-7.87,0,5.12-.18,9.52,0,13.9.78,15.58,1.75,31.14,2.52,46.72q1.5,30.28,2.77,60.58c.4,9.09,1.08,18.26-3.5,26.78,10.61,1.5,20.78,4.07,28.52,11.7,13.59,13.39,18.59,29.39,14.65,48.46-2.85,13.82-10.9,21.38-24.74,24.32,6.51,7.63,8.88,16.52,10,26.1,1.65,13.74-4.16,23.56-15.76,29.41a88.28,88.28,0,0,1-24.45,7.58c-5.39.94-11.27-.9-17.32-1.53-2.2,12.8-11.62,19.69-24.34,23.11-12.37,3.33-24,3.36-33.21-7.85a55.65,55.65,0,0,0-5.77,3.85c-6.57,5.63-14.19,9.05-22.45,11.27a17.62,17.62,0,0,0-3,1.45h-20c-3-1.93-6-4-9.14-5.77C57,394.33,50.08,383,50.6,367.31c0-.81,0-1.63,0-2.52-4.86,0-9.51.34-14.09-.07a24.32,24.32,0,0,1-18.62-11.13c-7.53-11.46-13.07-23.71-13.12-38,0-6.7,1.12-12.43,6.36-17a74.93,74.93,0,0,0,5.71-6.14C4.9,283.72-.1,271.7.06,257.32.18,247-1.08,236.56,4,226.58c4.26-8.42,10.69-13.06,19.55-14.18,5.85-.74,11.87-.14,18.09-.14-1.26-16.37,9-27.43,20.15-37.42,8.83-8,19.6-13,31.94-13.31a145.88,145.88,0,0,1,14.93-.11c14.28,1.09,24.66,8.6,32.86,21,8.11-13.39,21.67-12.18,34.67-13,14.19-.88,24.71,6.13,35.78,15.06C209,123.37,206.08,62.24,203.1,0c6,.55,11.63.41,16.94,1.7,11.89,2.9,23.64,6.36,35.37,9.86,27.62,8.22,50,23.58,64.45,49,2.84,5,4.81,10.43,7.18,15.67ZM33.19,288.27c-.92,1.47-1.48,3.08-2.6,4-2.3,1.88-5.07,3.19-7.34,5.1-7.13,6-13.34,12.94-10.11,23a187.25,187.25,0,0,0,11.78,28.26A19.74,19.74,0,0,0,41.11,359c4.62.36,10.17-.53,13.9-3,2.93-1.94,5.57-2.91,7.68-1.37,1,.76-.12,4.88-.75,7.35-.35,1.35-1.88,2.35-2.5,3.68s-1.52,3.23-1.2,4.61A62,62,0,0,0,62.06,382c4.43,9.54,13.42,14,22.1,18.47A17.87,17.87,0,0,0,94.46,402c10-1.6,18.7-6.39,26.54-12.83,3.69-3,6.59-5.95,6.93-11.34.48-7.43,1.88-8.06,8.54-6.39a19.44,19.44,0,0,1,0,3.89c-2.33,11.4,9,22,21.64,19.36,14.06-3,22.21-12,22.44-26.25,0-1.12.17-2.25.34-4.62,3.66,1,7.22,1.28,9.92,2.93,14,8.6,36.3,2.4,45.13-11.65,5-7.9.61-30-7.26-37.06-2-1.78-2.68-5-4.16-7.88A35.39,35.39,0,0,1,228.7,309c21.51-2.52,24.23-12.93,25.49-29.91.89-12-4.33-23.69-13.64-32-8.4-7.52-18.29-12.52-30.33-10.27-1.22.23-2.56-.13-5.44-.34,1.64-3.68,2.6-6.81,4.3-9.48,5.75-9,7-19.49,2.09-27.93-6.93-11.8-17.73-21.27-31.94-23.38-15.16-2.24-28.51,0-34,18.47a3.09,3.09,0,0,1-1.58,1.66c-3.41,1.48-5.82,1.72-7.41-3-4.47-13.19-13.74-21.65-27.36-24.85-16.28-3.82-30.7,1.23-42.12,12.31-9.73,9.43-19.34,20-17,35.77.66,4.44-2.82,4.85-5.69,4.91-2.2.05-4.5-.89-6.61-1.73C26.92,215,16.78,219,11.84,229.25c-6.92,14.39-6.5,28.85-.34,43.31,3.64,8.55,8.64,15.49,19.39,14.83C31.34,287.37,31.81,287.73,33.19,288.27ZM302.11,162.91c4.68-8,9.47-15.07,13.2-22.68,7.78-15.88,7.07-33.16,5.34-49.91-2.47-23.86-16.49-41.57-35-55.7-16.41-12.53-36-17.95-55.55-23.34C224,9.59,217.85,8.07,211.35,6.37c0,2.32-.08,4.14,0,6,1,18.74,2,37.47,2.95,56.21.4,8,.34,7.83,8.37,8.82,18.36,2.27,36.16,6.22,52.21,16.2,17.7,11,27.91,26,27.25,47.48C301.93,147.9,302.11,154.79,302.11,162.91Z"/><path class="cls-1" d="M33.19,288.27c-1.38-.54-1.85-.9-2.3-.88-10.75.66-15.75-6.28-19.39-14.83-6.16-14.46-6.58-28.92.34-43.31C16.78,219,26.92,215,37.47,219.19c2.11.84,4.41,1.78,6.61,1.73,2.87-.06,6.35-.47,5.69-4.91-2.37-15.73,7.24-26.34,17-35.77,11.42-11.08,25.84-16.13,42.12-12.31,13.62,3.2,22.89,11.66,27.36,24.85,1.59,4.7,4,4.46,7.41,3a3.09,3.09,0,0,0,1.58-1.66c5.51-18.44,18.86-20.71,34-18.47,14.21,2.11,25,11.58,31.94,23.38,5,8.44,3.66,18.91-2.09,27.93-1.7,2.67-2.66,5.8-4.3,9.48,2.88.21,4.22.57,5.44.34,12-2.25,21.93,2.75,30.33,10.27,9.31,8.34,14.53,20,13.64,32-1.26,17-4,27.39-25.49,29.91a35.39,35.39,0,0,0-4.21,1.21c1.48,2.91,2.19,6.1,4.16,7.88,7.87,7.1,12.22,29.16,7.26,37.06-8.83,14.05-31.1,20.25-45.13,11.65-2.7-1.65-6.26-1.89-9.92-2.93-.17,2.37-.32,3.5-.34,4.62-.23,14.24-8.38,23.29-22.44,26.25-12.68,2.68-24-8-21.64-19.36a19.44,19.44,0,0,0,0-3.89c-6.66-1.67-8.06-1-8.54,6.39-.34,5.39-3.24,8.31-6.93,11.34-7.84,6.44-16.51,11.23-26.54,12.83a17.87,17.87,0,0,1-10.3-1.53C75.48,396,66.49,391.56,62.06,382a62,62,0,0,1-3.82-11.74c-.32-1.38.53-3.17,1.2-4.61s2.15-2.33,2.5-3.68c.63-2.47,1.78-6.59.75-7.35-2.11-1.54-4.75-.57-7.68,1.37-3.73,2.46-9.28,3.35-13.9,3a19.74,19.74,0,0,1-16.19-10.39,187.25,187.25,0,0,1-11.78-28.26c-3.23-10,3-17,10.11-23,2.27-1.91,5-3.22,7.34-5.1C31.71,291.35,32.27,289.74,33.19,288.27ZM39,286.53c1,8.54,1.18,17.27,3.13,25.59,6.63,28.32,26.84,55.12,66.34,52.51,9.23-.61,18.63-.39,27.61-2.2C148.22,360,160,355.92,172,352.57c29.27-8.22,40.88-26.56,43-49.32,3-31.5-8.49-57.48-34.59-76.4-26.66-19.33-55.71-25.22-87.6-16.39-11.21,3.1-22.41,5.86-30.95,14.73C45.29,242.35,38.49,262.91,39,286.53Z"/><path class="cls-1" d="M302.11,162.91c0-8.12-.18-15,0-21.88.66-21.48-9.55-36.49-27.25-47.48-16.05-10-33.85-13.93-52.21-16.2-8-1-8-.85-8.37-8.82-.95-18.74-2-37.47-2.95-56.21-.09-1.81,0-3.63,0-5.95,6.5,1.7,12.67,3.22,18.78,4.91,19.52,5.39,39.14,10.81,55.55,23.34,18.48,14.13,32.5,31.84,35,55.7,1.73,16.75,2.44,34-5.34,49.91C311.58,147.84,306.79,154.94,302.11,162.91Z"/><path d="M39,286.53c-.52-23.62,6.28-44.18,22.84-61.34,8.54-8.87,19.74-11.63,30.95-14.73,31.89-8.83,60.94-2.94,87.6,16.39,26.1,18.92,37.55,44.9,34.59,76.4-2.14,22.76-13.75,41.1-43,49.32-11.95,3.35-23.75,7.41-35.88,9.86-9,1.81-18.38,1.59-27.61,2.2-39.5,2.61-59.71-24.19-66.34-52.51C40.19,303.8,40,295.07,39,286.53Zm70.48,73.09c9.73-1.43,24-2.83,38-5.83a164.58,164.58,0,0,0,30-10c18.74-8.06,31.61-28.61,30.5-47.48-1.35-23.07-8.84-43.29-27.25-58.49-23.87-19.71-49.74-30.41-81.67-23.05-20.48,4.72-35.63,14.75-44.3,33.8C44.15,272,44.63,296.11,53.3,319.78S79,357.43,109.49,359.62Z"/><path class="cls-1" d="M109.49,359.62C79,357.43,62,343.43,53.3,319.78s-9.15-47.8,1.52-71.22c8.67-19.05,23.82-29.08,44.3-33.8,31.93-7.36,57.8,3.34,81.67,23.05C199.2,253,206.69,273.23,208,296.3c1.11,18.87-11.76,39.42-30.5,47.48a164.58,164.58,0,0,1-30,10C133.53,356.79,119.22,358.19,109.49,359.62ZM85.77,321.48c-.49,5,.27,11,6.7,12.54a43.71,43.71,0,0,0,18,.52c9.19-1.82,18.13-5,27.05-8,9.87-3.32,19.68-6.86,29.36-10.7,5.09-2,7.13-6.79,6.19-12.26-.85-5-3.57-7.67-9.22-7.8s-11.43.77-17.16.89C129.47,297,113,301,96.6,306,88,308.59,85.82,311.65,85.77,321.48Zm-2.1-39.23c0-1.82,0-3.31,0-4.8.26-6.56,4-11.31,10.26-12.9,8.65-2.21,10.47-1.46,15,6.16.92,1.57,1.89,3.12,2.74,4.73,1.63,3.05,4.13,2.7,6.17,1a5.41,5.41,0,0,0,1.57-4.58c-2.74-10-8.69-14.21-19.13-14-1.33,0-2.66,0-4,.16-13.15,1.26-19.58,7.21-20.21,18.69C75.66,283.85,76.66,284.63,83.67,282.25Zm89.54-11.91c.27-7.18-4.52-16-9.82-18.49-14.21-6.54-28,2.42-27.43,17.89,0,1.29,1.49,2.53,2.29,3.79,1.74-1.25,4-2.17,5.09-3.84,1-1.5.64-3.84,1-5.79.82-4.57,4.21-7.39,8.2-7.28,3.08.08,6.28,2.63,9,4.65,1.26.93,1.57,3.18,2.29,4.84C166.44,272.08,167,272.33,173.21,270.34Z"/><path d="M85.77,321.48c0-9.83,2.23-12.89,10.83-15.5,16.35-5,32.87-9,50.09-9.35,5.73-.12,11.45-1,17.16-.89s8.37,2.84,9.22,7.8c.94,5.47-1.1,10.24-6.19,12.26-9.68,3.84-19.49,7.38-29.36,10.7-8.92,3-17.86,6.22-27.05,8a43.71,43.71,0,0,1-18-.52C86,332.5,85.28,326.52,85.77,321.48Zm25.9,6.31c-2.28-6-4.48-11.76-6.74-17.73-4.63,1.35-9.68,2-11.25,7.57a8.94,8.94,0,0,0,3.26,10.18C101.68,331.39,106.48,330,111.67,327.79ZM124,304.65c-2.68.71-5.19,1.5-7.76,2s-3.07,2-2.12,4.3c2,4.84,3.88,9.7,5.86,14.71l10.78-3.31C128.45,316.41,126.3,310.77,124,304.65Zm25.29,11.1c-4.35-14.58-4.35-14.58-15.87-12.7-.15,0-.28.15-.77.43.71,2.24,1.31,4.61,2.21,6.86C138.75,320.27,138.78,320.26,149.25,315.75Zm8.6-2.49c3.51-2.23,8.32-3.39,6.8-8.15-1.71-5.36-6.93-4.39-12-4.16Z"/><path d="M83.67,282.25c-7,2.38-8,1.6-7.62-5.47.63-11.48,7.06-17.43,20.21-18.69,1.32-.13,2.65-.13,4-.16,10.44-.24,16.39,4,19.13,14a5.41,5.41,0,0,1-1.57,4.58c-2,1.66-4.54,2-6.17-1-.85-1.61-1.82-3.16-2.74-4.73-4.49-7.62-6.31-8.37-15-6.16-6.21,1.59-10,6.34-10.26,12.9C83.62,278.94,83.67,280.43,83.67,282.25Z"/><path d="M173.21,270.34c-6.25,2-6.77,1.74-9.37-4.23-.72-1.66-1-3.91-2.29-4.84-2.74-2-5.94-4.57-9-4.65-4-.11-7.38,2.71-8.2,7.28-.35,2,0,4.29-1,5.79-1.1,1.67-3.35,2.59-5.09,3.84-.8-1.26-2.24-2.5-2.29-3.79-.62-15.47,13.22-24.43,27.43-17.89C168.69,254.3,173.48,263.16,173.21,270.34Z"/><path class="cls-1" d="M111.67,327.79c-5.19,2.21-10,3.6-14.73,0a8.94,8.94,0,0,1-3.26-10.18c1.57-5.54,6.62-6.22,11.25-7.57C107.19,316,109.39,321.79,111.67,327.79Z"/><path class="cls-1" d="M124,304.65c2.34,6.12,4.49,11.76,6.76,17.73l-10.78,3.31c-2-5-3.88-9.87-5.86-14.71-1-2.32-.57-3.74,2.12-4.3S121.28,305.36,124,304.65Z"/><path class="cls-1" d="M149.25,315.75c-10.47,4.51-10.5,4.52-14.43-5.41-.9-2.25-1.5-4.62-2.21-6.86.49-.28.62-.41.77-.43C144.9,301.17,144.9,301.17,149.25,315.75Z"/><path class="cls-1" d="M157.85,313.26,152.69,301c5-.23,10.25-1.2,12,4.16C166.17,309.87,161.36,311,157.85,313.26Z"/></g></g></svg>